<svg xmlns="http://www.w3.org/2000/svg" viewBox="0 0 512 512"><path d="M452.017 0H161.035v15.208h290.982c9.783 0 17.743 7.96 17.743 17.743v363.198H42.24V32.951c0-9.783 7.96-17.743 17.743-17.743h80.774V0H59.983c-18.169 0-32.95 14.781-32.95 32.951v442.64h27.033V512h403.87v-36.409h27.033V32.951C484.967 14.781 470.186 0 452.017 0zm17.743 460.309h-27.033v.074h-315.93v15.208h315.93v21.201H69.273v-21.201h39.451v-15.208H69.273v-.074H42.24v-48.952h427.52v48.952z"/><path d="M439.347 98.852h15.208v79.76h-15.208zm0 100.037h15.208v184.594h-15.208zm-334.048-68.101V115.58H67.591v180.248l37.759-.255-.102-15.208-22.449.152V130.788zm71.382 82.495h60.959l-20.459 20.459-27.716.001v15.208l23.261-.001.001 23.263h15.208v-27.717l20.461-20.461.001 60.965h15.208l-.001-60.963 20.462 20.459v27.717h15.208v-23.262l23.259-.001v-15.208l-27.714.001-20.461-20.46h60.962v-15.208h-60.963l20.462-20.461 27.716.001v-15.208l-23.262-.001v-23.263h-15.208v27.717l-20.461 20.46v-60.96h-15.208v60.962l-20.461-20.46-.001-27.719h-15.208l.001 23.264-23.261-.003-.002 15.208 27.718.004 20.461 20.459h-60.962zm-68.167 209.629h15.208v25.906h-15.208zm30.426 0h15.208v25.906H138.94zm30.415 0h15.208v25.906h-15.208zm158.082 0h15.208v25.906h-15.208zm30.416 0h15.208v25.906h-15.208zm30.415 0h15.208v25.906h-15.208z"/></svg>