<svg xmlns="http://www.w3.org/2000/svg" viewBox="0 0 392.8 392.8"><path d="M369.2 171.2v-2.4h4c10.4 0 18.4-8 18.4-18.4v-132c0-10.4-8-18.4-18.4-18.4H19.6C9.2 0 1.2 8 1.2 18.4v132c0 10.4 8 18.4 18.4 18.4h4v160.8h-4c-10.4 0-18.4 8-18.4 18.4v26.4c0 10.4 8 18.4 18.4 18.4h353.6c10.4 0 18.4-8 18.4-18.4v-25.6c0-10.4-8-18.4-18.4-18.4h-4V171.2zm4 175.2c1.6-.8 2.4.8 2.4 2.4v26.4c0 1.6-.8 2.4-2.4 2.4H19.6c-1.6 0-2.4-.8-2.4-2.4v-26.4c0-1.6.8-2.4 2.4-2.4h353.6zm-200.8-136c4.8 0 8-3.2 8-8v-33.6h32v33.6c0 4.8 3.2 8 8 8s8-3.2 8-8v-33.6h122.4c1.6 0 2.4 1.6 2.4 2.4v156c0 1.6-.8 2.4-2.4 2.4H42c-1.6 0-2.4-.8-2.4-2.4v-156c0-1.6.8-2.4 2.4-2.4h122.4v33.6c0 4.8 3.2 8 8 8zm178.4-57.6H19.6c-1.6 0-2.4-.8-2.4-2.4v-132c0-1.6.8-2.4 2.4-2.4h353.6c1.6 0 2.4.8 2.4 2.4v132c0 1.6-.8 2.4-2.4 2.4h-22.4z"/><path d="M315.6 248c-7.2-9.6-21.6-10.4-36-10.4-.8-4-4-6.4-7.2-6.4h-152c-4.8 0-8 3.2-8 8 0 46.4 37.6 84 84 84 19.2 0 37.6-6.4 51.2-17.6 19.2-.8 64.8-10.4 71.2-36 2.4-8.8.8-16-3.2-21.6zm-119.2 59.2c-34.4 0-63.2-26.4-67.2-60h134.4c-4 33.6-32.8 60-67.2 60zm107.2-41.6c-2.4 9.6-20.8 17.6-38.4 21.6 6.4-9.6 11.2-20.8 13.6-33.6 9.6 0 21.6 0 24.8 4 .8 1.6.8 4.8 0 8z"/><circle cx="66.8" cy="60.8" r="17.6"/><circle cx="120.4" cy="60.8" r="17.6"/><path d="M326.8 52.8h-70.4c-4.8 0-8 3.2-8 8s3.2 8 8 8h70.4c4.8 0 8-3.2 8-8s-3.2-8-8-8z"/></svg>