<svg version="1.1" id="Capa_1" xmlns="http://www.w3.org/2000/svg" xmlns:xlink="http://www.w3.org/1999/xlink" x="0px" y="0px"
	 viewBox="0 0 392.8 392.8" style="enable-background:new 0 0 392.8 392.8;" xml:space="preserve">
<g fill="#000000">
	<g>
		<path d="M369.2,171.2c0-0.8,0-1.6,0-2.4h4c10.4,0,18.4-8,18.4-18.4v-132c0-10.4-8-18.4-18.4-18.4H19.6C9.2,0,1.2,8,1.2,18.4v132
			c0,10.4,8,18.4,18.4,18.4h4c0,0.8,0,1.6,0,2.4v156c0,0.8,0,1.6,0,2.4h-4c-10.4,0-18.4,8-18.4,18.4v26.4c0,10.4,8,18.4,18.4,18.4
			h353.6c10.4,0,18.4-8,18.4-18.4v-25.6c0-10.4-8-18.4-18.4-18.4h-4c0-0.8,0-1.6,0-2.4V171.2z M373.2,346.4c1.6-0.8,2.4,0.8,2.4,2.4
			v26.4c0,1.6-0.8,2.4-2.4,2.4H19.6c-1.6,0-2.4-0.8-2.4-2.4v-26.4c0-1.6,0.8-2.4,2.4-2.4H42h308.8H373.2z M172.4,210.4
			c4.8,0,8-3.2,8-8v-33.6h32v33.6c0,4.8,3.2,8,8,8s8-3.2,8-8v-33.6h122.4c1.6,0,2.4,1.6,2.4,2.4v156c0,1.6-0.8,2.4-2.4,2.4H42
			c-1.6,0-2.4-0.8-2.4-2.4v-156c0-1.6,0.8-2.4,2.4-2.4h122.4v33.6C164.4,207.2,167.6,210.4,172.4,210.4z M350.8,152.8H42H19.6
			c-1.6,0-2.4-0.8-2.4-2.4v-132c0-1.6,0.8-2.4,2.4-2.4h353.6c1.6,0,2.4,0.8,2.4,2.4v132c0,1.6-0.8,2.4-2.4,2.4H350.8z"/>
	</g>
	<g>
		<path d="M315.6,248c-7.2-9.6-21.6-10.4-36-10.4c-0.8-4-4-6.4-7.2-6.4h-152c-4.8,0-8,3.2-8,8c0,46.4,37.6,84,84,84
			c19.2,0,37.6-6.4,51.2-17.6c19.2-0.8,64.8-10.4,71.2-36C321.2,260.8,319.6,253.6,315.6,248z M196.4,307.2
			c-34.4,0-63.2-26.4-67.2-60h134.4C259.6,280.8,230.8,307.2,196.4,307.2z M303.6,265.6c-2.4,9.6-20.8,17.6-38.4,21.6
			c6.4-9.6,11.2-20.8,13.6-33.6c9.6,0,21.6,0,24.8,4C304.4,259.2,304.4,262.4,303.6,265.6z"/>
	</g>
	<g>
		<circle cx="66.8" cy="60.8" r="17.6"/>
	</g>
	<g>
		<circle cx="120.4" cy="60.8" r="17.6"/>
	</g>
	<g>
		<path d="M326.8,52.8h-70.4c-4.8,0-8,3.2-8,8s3.2,8,8,8h70.4c4.8,0,8-3.2,8-8S331.6,52.8,326.8,52.8z"/>
	</g>
</g>
</svg>
